<svg width="71" height="70" viewBox="0 0 71 70" fill="none" xmlns="http://www.w3.org/2000/svg">
<path d="M68.3909 65.5876H31.6216C31.4275 65.5876 31.2377 65.5081 31.1024 65.3714C30.9642 65.2344 30.8862 65.0449 30.8862 64.8522V57.4983C30.8862 57.3042 30.9642 57.1145 31.1024 56.9777C31.2392 56.8409 31.4275 56.7629 31.6216 56.7629H61.037C61.443 56.7629 61.7724 57.0924 61.7724 57.4983C61.7724 57.9028 61.443 58.2337 61.037 58.2337H32.357V64.1168H67.6555V58.9691C67.6555 58.5632 67.985 58.2322 68.3909 58.2322C68.7968 58.2322 69.1263 58.5632 69.1263 58.9691V64.8522C69.1263 65.0478 69.0497 65.2331 68.9116 65.3714C68.7718 65.5111 68.588 65.5876 68.3909 65.5876ZM65.4494 58.2337C65.0434 58.2337 64.714 57.9028 64.714 57.4983C64.714 57.0924 65.0434 56.7629 65.4494 56.7629C65.8553 56.7629 66.1847 57.0924 66.1847 57.4983C66.1847 57.9028 65.8553 58.2337 65.4494 58.2337Z" fill="#F5F5DC"/>
<path d="M63.9789 52.3505H36.0342C35.8401 52.3505 35.6517 52.2711 35.5136 52.1343C35.3768 51.9974 35.2988 51.8078 35.2988 51.6151V44.2613C35.2988 44.0671 35.3768 43.8774 35.5136 43.7406C35.6517 43.6038 35.8401 43.5259 36.0342 43.5259H63.9789C64.1729 43.5259 64.3626 43.6038 64.4981 43.7406C64.6348 43.8774 64.7143 44.0671 64.7143 44.2613V51.6151C64.7143 51.8107 64.6376 51.9961 64.4981 52.1343C64.3598 52.274 64.1745 52.3505 63.9789 52.3505ZM36.7696 50.8797H63.2435V44.9967H36.7696V50.8797Z" fill="#F5F5DC"/>
<path d="M63.9781 58.2335C63.5721 58.2335 63.2427 57.9026 63.2427 57.4981V41.3196C63.2427 40.9137 63.5721 40.5842 63.9781 40.5842C64.384 40.5842 64.7134 40.9137 64.7134 41.3196V57.4981C64.7134 57.9026 64.384 58.2335 63.9781 58.2335Z" fill="#F5F5DC"/>
<path d="M36.0342 58.2335C35.6283 58.2335 35.2988 57.9026 35.2988 57.4981V41.3196C35.2988 40.9137 35.6283 40.5842 36.0342 40.5842C36.4401 40.5842 36.7696 40.9137 36.7696 41.3196V57.4981C36.7696 57.9026 36.4401 58.2335 36.0342 58.2335Z" fill="#F5F5DC"/>
<path d="M63.9781 70C63.5721 70 63.2427 69.669 63.2427 69.2646V66.323C63.2427 65.9171 63.5721 65.5876 63.9781 65.5876C64.384 65.5876 64.7134 65.9171 64.7134 66.323V69.2646C64.7134 69.669 64.384 70 63.9781 70Z" fill="#F5F5DC"/>
<path d="M36.0342 70C35.6283 70 35.2988 69.669 35.2988 69.2646V66.323C35.2988 65.9171 35.6283 65.5876 36.0342 65.5876C36.4401 65.5876 36.7696 65.9171 36.7696 66.323V69.2646C36.7696 69.669 36.4401 70 36.0342 70Z" fill="#F5F5DC"/>
<path d="M69.8611 70.0001H2.2056C1.79967 70.0001 1.47021 69.6691 1.47021 69.2647C1.47021 68.8587 1.79967 68.5293 2.2056 68.5293H69.8611C70.267 68.5293 70.5965 68.8587 70.5965 69.2647C70.5965 69.6691 70.267 70.0001 69.8611 70.0001Z" fill="#F5F5DC"/>
<path d="M12.5025 49.4092H12.501C11.0508 49.4077 9.67565 48.9473 8.52109 48.0781C7.96661 47.6588 7.48273 47.1589 7.08268 46.5897C6.67969 46.0146 6.37083 45.3822 6.16786 44.7115C5.49719 44.5084 4.86476 44.1997 4.28968 43.7952C3.7205 43.3966 3.21896 42.9128 2.80126 42.3568C1.93057 41.2037 1.47169 39.8287 1.47021 38.3784C1.47021 36.9782 1.90262 35.6413 2.71743 34.5117C3.51459 33.4057 4.61178 32.5835 5.89283 32.1335C5.96489 30.8083 6.42672 29.5508 7.22829 28.4948C8.01662 27.4564 9.07852 26.6813 10.3022 26.2504C10.3949 24.1678 11.2758 22.2234 12.7834 20.7762C14.2968 19.323 16.2853 18.5229 18.3841 18.5229C19.4769 18.5229 20.5358 18.7362 21.533 19.1583C22.4964 19.5657 23.3612 20.1496 24.1039 20.8924C24.8467 21.6351 25.4306 22.4999 25.838 23.4633C26.2586 24.4605 26.4733 25.5194 26.4733 26.6122C26.4733 26.871 26.4601 27.1343 26.4351 27.3917C26.691 27.3623 26.9513 27.3476 27.2087 27.3476C28.1029 27.3476 28.9692 27.5226 29.7855 27.8668C30.5724 28.2006 31.2813 28.6786 31.8887 29.2861C32.4961 29.8935 32.9741 30.6009 33.3065 31.3893C33.6522 32.2055 33.8272 33.0718 33.8272 33.9661C33.8272 35.5751 33.2433 37.1267 32.1814 38.3328C32.2976 38.8284 32.3564 39.3388 32.3564 39.8491C32.3564 41.6141 31.6696 43.2746 30.4224 44.5233C29.1766 45.7719 27.5176 46.4631 25.7527 46.4676C25.3467 46.4676 25.0173 46.1382 25.0158 45.7337C25.0158 45.5366 25.0923 45.3528 25.2305 45.213C25.3688 45.0735 25.5541 44.9968 25.7497 44.9968C28.5824 44.991 30.8856 42.6818 30.8856 39.8491C30.8856 39.3358 30.8106 38.8299 30.6621 38.3431C30.5827 38.0827 30.6518 37.8018 30.8459 37.6093C31.8196 36.634 32.3564 35.3412 32.3564 33.9661C32.3564 32.5924 31.8211 31.2995 30.8489 30.3259C29.8752 29.3537 28.5824 28.8184 27.2087 28.8184C26.7131 28.8184 26.2204 28.8889 25.7438 29.0301C25.4938 29.1037 25.2173 29.0375 25.029 28.8595C24.8393 28.6786 24.7584 28.4095 24.8202 28.155C24.9408 27.6476 25.0026 27.1284 25.0026 26.6122C25.0026 24.8443 24.3142 23.1824 23.0641 21.9322C21.8125 20.682 20.1505 19.9937 18.3841 19.9937C16.6177 19.9937 14.9557 20.682 13.7041 21.9322C12.4539 23.1824 11.7656 24.8443 11.7656 26.6122C11.7656 26.6357 11.7671 26.6681 11.7686 26.7093C11.7686 26.7299 11.77 26.7519 11.77 26.7769C11.7789 27.1167 11.5465 27.4241 11.217 27.5079C8.94026 28.0933 7.35183 30.1435 7.3533 32.4953C7.3533 32.5262 7.35477 32.5644 7.35624 32.61L7.35771 32.6556C7.36948 32.9968 7.1371 33.3071 6.8047 33.391C4.52795 33.9763 2.93952 36.0265 2.94099 38.3784C2.93952 40.7904 4.5809 42.8539 6.93266 43.3937C7.20622 43.4571 7.42243 43.6731 7.48567 43.9452C8.02397 46.297 10.086 47.9384 12.4981 47.9384H12.501C13.4041 47.9384 14.2939 47.6986 15.0749 47.2471C15.2969 47.1192 15.5882 47.1192 15.8102 47.2471C16.5706 47.6869 17.4001 47.9193 18.2767 47.9369C18.6827 47.9457 19.0048 48.2825 18.9974 48.687C18.9886 49.09 18.6488 49.4181 18.2473 49.4077C17.2634 49.3869 16.3206 49.1562 15.4425 48.7179C14.5351 49.1694 13.5188 49.4092 12.5025 49.4092ZM22.3037 47.9134C22.0934 47.9134 21.8933 47.8237 21.7551 47.6678C21.6242 47.5207 21.558 47.3324 21.5683 47.1368C21.5801 46.9397 21.6668 46.7603 21.8125 46.6294C21.9478 46.5089 22.1213 46.4426 22.3022 46.4426C22.5111 46.4426 22.7111 46.5323 22.8508 46.6882C22.9817 46.8338 23.0479 47.0222 23.0376 47.2192C23.0258 47.4148 22.9391 47.5957 22.7935 47.7266C22.6581 47.8472 22.4846 47.9134 22.3037 47.9134Z" fill="#F5F5DC"/>
<path d="M15.4429 70.0001C15.037 70.0001 14.7075 69.6691 14.7075 69.2647V48.6739C14.7075 48.2679 15.037 47.9385 15.4429 47.9385C15.8488 47.9385 16.1783 48.2679 16.1783 48.6739V69.2647C16.1783 69.6691 15.8488 70.0001 15.4429 70.0001Z" fill="#F5F5DC"/>
<path d="M30.1508 15.5814C29.7449 15.5814 29.4154 15.2519 29.4154 14.846C29.4169 12.3868 27.6682 10.263 25.2576 9.79387C24.9972 9.74387 24.784 9.55561 24.7001 9.30411C23.8971 6.90086 21.6556 5.28596 19.123 5.28596H19.1171C16.3373 5.28596 13.915 7.25973 13.3575 9.97919C13.309 10.213 13.1487 10.4101 12.9296 10.5057C12.7104 10.5999 12.4545 10.5822 12.2515 10.4572C11.4426 9.96007 10.5131 9.69827 9.56002 9.69827C8.18632 9.69827 6.89351 10.2336 5.91986 11.2058C4.94768 12.1795 4.41232 13.4723 4.41232 14.846C4.41232 15.0386 4.33436 15.2284 4.19758 15.3652C4.0608 15.5019 3.87107 15.5814 3.67693 15.5814H0.735386C0.329453 15.5814 0 15.2519 0 14.846C0 14.44 0.329453 14.1106 0.735386 14.1106H2.98125C3.15922 12.503 3.92255 11.0176 5.12858 9.92918C6.34491 8.83199 7.91863 8.2275 9.56002 8.2275C10.466 8.2275 11.3426 8.40693 12.1692 8.76139C12.4148 8.05101 12.7692 7.38328 13.2193 6.77879C13.6679 6.17725 14.2018 5.65071 14.8077 5.21095C16.0682 4.2976 17.5581 3.81519 19.12 3.81519C20.6202 3.81519 22.063 4.26377 23.2926 5.11388C24.4928 5.94339 25.412 7.09501 25.9503 8.4437C28.8551 9.20556 30.8847 11.8382 30.8862 14.846C30.8862 15.2519 30.5568 15.5814 30.1508 15.5814Z" fill="#F5F5DC"/>
<path d="M39.6889 13.2368C38.9418 13.2368 38.3433 13.1603 37.8036 12.9986C37.1623 12.8074 36.6077 12.4794 36.1547 12.0249C35.6017 11.4719 35.2972 10.7247 35.2988 9.91876C35.2988 9.04512 35.6651 8.17884 36.3034 7.54052C36.9417 6.88309 37.7521 6.52569 38.5682 6.53893C38.6801 6.53893 38.7963 6.54481 38.914 6.55658C38.9037 6.43891 38.8978 6.32125 38.8978 6.20947C38.8846 5.38731 39.2405 4.58427 39.8979 3.94596C40.223 3.62091 40.5996 3.36794 41.0172 3.19439C41.4231 3.02378 41.8482 2.93848 42.2806 2.93848H42.2865C43.088 2.93848 43.8339 3.24293 44.3854 3.79447C44.8399 4.24599 45.1664 4.80047 45.3589 5.44173C45.5208 5.98003 45.5957 6.57864 45.5972 7.32579C45.5942 8.12148 45.5119 8.95834 45.4236 9.84228C45.3501 10.5924 45.2721 11.366 45.2383 12.1779C45.2221 12.5617 44.9206 12.8647 44.5366 12.8809C43.7277 12.9147 42.9555 12.9912 42.2084 13.0647C41.3215 13.153 40.4861 13.2353 39.6889 13.2368ZM39.6889 11.766H39.7125C40.3817 11.766 41.1671 11.6896 41.998 11.6072C42.5746 11.5498 43.1717 11.491 43.8071 11.4484C43.8498 10.81 43.9086 10.2114 43.9659 9.63196C44.0527 8.75538 44.1279 7.9994 44.1263 7.32579C44.1263 6.73454 44.0689 6.25801 43.9498 5.86678C43.8203 5.4432 43.635 5.12551 43.3454 4.8343C43.0673 4.5578 42.6996 4.41072 42.2806 4.40925C41.7938 4.40925 41.304 4.61957 40.9378 4.98579C40.4686 5.47409 40.3804 5.76971 40.3686 6.20947C40.3671 6.49186 40.4318 6.84632 40.5627 7.29196C40.6392 7.54935 40.567 7.82879 40.3774 8.01852C40.1892 8.20825 39.9068 8.28032 39.6494 8.20384C39.2081 8.07294 38.8552 8.0097 38.5728 8.0097H38.5684C38.1287 8.02146 37.833 8.11118 37.3448 8.58036C36.9786 8.94511 36.7698 9.4334 36.7698 9.91876C36.7712 10.3379 36.9183 10.7071 37.1961 10.9851C37.486 11.2748 37.8052 11.4616 38.2288 11.591C38.6184 11.7087 39.0936 11.766 39.6804 11.766H39.6889Z" fill="#F5F5DC"/>
<path d="M57.2779 14.1106C56.166 14.1091 54.9763 13.99 53.7188 13.8664C52.6377 13.7591 51.5215 13.6488 50.3462 13.5988C49.9609 13.5811 49.6593 13.2796 49.6433 12.8957C49.5932 11.722 49.4829 10.6087 49.377 9.5306C49.2519 8.27162 49.1343 7.08324 49.1328 5.96986C49.1328 4.9315 49.2372 4.10198 49.4608 3.36071C49.7197 2.49296 50.1624 1.74433 50.7742 1.13396C51.5052 0.402991 52.4935 0 53.5584 0H53.5659C54.1408 0 54.7072 0.11472 55.2498 0.341219C55.8088 0.573601 56.3118 0.911878 56.7485 1.34723C57.1956 1.78552 57.5368 2.26646 57.7618 2.77682C57.9841 3.28129 58.0928 3.81518 58.0869 4.36378C58.0869 4.63881 58.0635 4.9212 58.015 5.22565C58.3193 5.17712 58.6016 5.15358 58.8767 5.15358C59.4341 5.1477 59.9739 5.25948 60.4844 5.48892C60.9874 5.71395 61.4623 6.05223 61.8948 6.49346C62.3302 6.92881 62.6699 7.43328 62.9023 7.99217C63.1288 8.53636 63.2435 9.1026 63.2435 9.67915C63.245 10.7469 62.842 11.7382 62.111 12.4692C61.5007 13.081 60.7521 13.5223 59.8843 13.7826C59.143 14.0062 58.315 14.1091 57.2779 14.1106ZM51.0773 12.1648C52.0789 12.2251 53.0171 12.3177 53.9261 12.4074C55.1306 12.5266 56.2691 12.6398 57.2546 12.6398H57.2882C58.1604 12.6398 58.8708 12.553 59.4591 12.3751C60.1092 12.1765 60.621 11.8765 61.0696 11.4294C61.5285 10.9705 61.7713 10.3645 61.7726 9.67915C61.7726 8.89817 61.4373 8.11572 60.8549 7.53329C60.1783 6.87586 59.6621 6.63759 58.8767 6.62436H58.8708C58.4354 6.62436 57.9016 6.71996 57.2382 6.91557C56.9823 6.99058 56.6999 6.91851 56.5117 6.73025C56.3205 6.54052 56.25 6.26107 56.3249 6.00222C56.522 5.33596 56.6176 4.79913 56.616 4.36378C56.6027 3.57986 56.3645 3.06215 55.7085 2.38706C55.1261 1.80464 54.3451 1.47077 53.5657 1.47077V1.46342V1.47077C52.8789 1.47224 52.2744 1.71492 51.814 2.1738C51.3669 2.62386 51.0669 3.13568 50.8682 3.78577C50.6887 4.37849 50.602 5.09181 50.6034 5.96986C50.602 6.96116 50.7137 8.10836 50.8343 9.32322C50.9244 10.2292 51.0154 11.1646 51.0773 12.1648Z" fill="#F5F5DC"/>
<path d="M51.4772 40.5843C50.6918 40.5828 49.952 40.2769 49.3974 39.7224C48.8416 39.1666 48.5356 38.4281 48.5356 37.6427C48.5356 36.8559 48.8416 36.1175 49.3974 35.563C49.952 35.0071 50.6918 34.7012 51.4772 34.7012C53.098 34.7012 54.4187 36.0205 54.4187 37.6427C54.4187 39.2635 53.098 40.5828 51.4772 40.5843ZM51.4772 36.1719C50.6683 36.1734 50.0079 36.8323 50.0064 37.6427C50.0079 38.4516 50.6683 39.112 51.4772 39.1135C52.2861 39.112 52.9465 38.4516 52.948 37.6427C52.9465 36.8323 52.2861 36.1733 51.4772 36.1719Z" fill="#F5F5DC"/>
<path d="M20.9584 40.952C19.8068 40.9505 18.5684 40.8549 17.3727 40.7638C16.174 40.6711 15.043 40.5843 13.9928 40.5843H13.9722C13.9619 40.5843 13.9502 40.5843 13.9399 40.5843C12.875 40.5843 12.0293 40.2565 11.494 39.6386C11.038 39.1121 10.8057 38.4032 10.8057 37.5325C10.8071 36.7589 10.9777 35.894 11.3278 34.8895C11.5528 34.2438 11.7778 33.7717 11.8411 33.6423L11.844 33.6364C11.969 33.3864 12.222 33.2305 12.5015 33.2305C12.6162 33.2305 12.7265 33.2555 12.8309 33.3084C13.1927 33.4893 13.3398 33.932 13.1589 34.2938C13.1589 34.2953 13.1486 34.3144 13.1251 34.3644C13.1045 34.4086 13.0692 34.4836 13.0251 34.5865C12.9486 34.7615 12.8324 35.041 12.7147 35.3749C12.5824 35.7514 12.272 36.7162 12.2764 37.5325C12.2764 38.0384 12.3882 38.4311 12.6 38.6694C12.7691 38.8562 13.0927 39.1062 13.9722 39.1136C15.1253 39.1136 16.3622 39.2092 17.558 39.3018C18.7567 39.393 19.8892 39.4812 20.9378 39.4812H20.9805C22.1115 39.4812 23.016 39.3695 23.6676 39.1503C24.3809 38.9062 24.8177 38.5664 25.081 38.0487C25.206 37.7972 25.459 37.6428 25.7384 37.6428C25.8531 37.6428 25.9634 37.6678 26.0679 37.7194C26.2429 37.8077 26.3738 37.9591 26.4356 38.1458C26.4988 38.3311 26.4841 38.5311 26.3958 38.7063C25.859 39.7901 24.8692 40.3049 24.1323 40.5462C23.3013 40.8211 22.2939 40.9505 20.9584 40.952Z" fill="#F5F5DC"/>
<path d="M6.6182 69.9997C6.21227 69.9997 5.88281 69.6688 5.88281 69.2644V60.4397C5.88281 60.0338 6.21227 59.7043 6.6182 59.7043C7.02413 59.7043 7.35358 60.0338 7.35358 60.4397V69.2644C7.35358 69.6688 7.02413 69.9997 6.6182 69.9997Z" fill="#F5F5DC"/>
<path d="M19.8555 69.9999C19.4496 69.9999 19.1201 69.6689 19.1201 69.2645V63.3814C19.1201 62.9754 19.4496 62.646 19.8555 62.646C20.2614 62.646 20.5909 62.9754 20.5909 63.3814V69.2645C20.5909 69.6689 20.2614 69.9999 19.8555 69.9999Z" fill="#F5F5DC"/>
<path d="M25.7383 69.9999C25.3324 69.9999 25.0029 69.669 25.0029 69.2645V57.4983C25.0029 57.0924 25.3324 56.7629 25.7383 56.7629C26.1442 56.7629 26.4737 57.0924 26.4737 57.4983V69.2645C26.4737 69.669 26.1442 69.9999 25.7383 69.9999Z" fill="#F5F5DC"/>
<path d="M68.3906 31.76H61.0367C60.8439 31.76 60.6542 31.6806 60.5161 31.5438C60.3793 31.407 60.3013 31.2173 60.3013 31.0246C60.3028 28.9641 58.885 27.1859 56.9318 26.7961C56.67 26.7447 56.4582 26.5549 56.3758 26.302C55.7199 24.2885 53.9005 22.9354 51.8473 22.9354H51.84C49.5868 22.9354 47.6189 24.59 47.1629 26.8697C47.1159 27.108 46.9541 27.3065 46.732 27.4021C46.5097 27.4962 46.2524 27.4756 46.0481 27.3477C45.3951 26.9359 44.645 26.7167 43.8772 26.7167C42.7697 26.7182 41.7255 27.1624 40.9386 27.9713C40.1459 28.7861 39.7105 29.8701 39.7105 31.0246C39.7105 31.4291 39.3811 31.76 38.9751 31.76C38.5692 31.76 38.2397 31.4291 38.2397 31.0246C38.2427 29.4847 38.8281 28.036 39.887 26.9462C40.9502 25.8504 42.3666 25.2474 43.8772 25.246C44.6023 25.246 45.3081 25.3857 45.976 25.6607C46.4114 24.4459 47.1879 23.4045 48.222 22.65C49.2824 21.8749 50.5354 21.4646 51.8445 21.4646C53.1138 21.4646 54.3359 21.8529 55.3773 22.5853C56.3908 23.3001 57.1717 24.2914 57.6335 25.4533C58.7029 25.7563 59.6558 26.3711 60.3869 27.2315C61.1223 28.0963 61.5855 29.1538 61.7266 30.2892H68.3906C68.7965 30.2892 69.126 30.6187 69.126 31.0246C69.126 31.4291 68.7965 31.76 68.3906 31.76Z" fill="#F5F5DC"/>
</svg>
