<svg width="90" height="70" viewBox="0 0 90 70" fill="none" xmlns="http://www.w3.org/2000/svg">
<path d="M89.0233 70.0002C89.5408 70.0002 89.9605 69.5806 89.9605 69.0631C89.9605 68.5456 89.5408 68.126 89.0233 68.126C85.6069 68.126 82.0495 65.9915 78.4921 63.8571C74.709 61.5873 70.9258 59.3174 67.0018 59.3174C63.0778 59.3174 59.2946 61.5873 55.5115 63.8571C51.9542 65.9915 48.3967 68.126 44.9803 68.126C41.5639 68.126 38.0064 65.9915 34.449 63.8571C30.6659 61.5873 26.8827 59.3174 22.9587 59.3174C19.0348 59.3174 15.2515 61.5873 11.4684 63.8571C7.91109 65.9914 4.35351 68.126 0.937109 68.126C0.419612 68.126 0 68.5456 0 69.0631C0 69.5806 0.419614 70.0002 0.937109 70.0002C4.86112 70.0002 8.64436 67.7302 12.4275 65.4604C15.9848 63.3261 19.5423 61.1916 22.9587 61.1916C26.3751 61.1916 29.9327 63.3261 33.49 65.4604C37.2731 67.7303 41.0564 70.0002 44.9803 70.0002C48.9043 70.0002 52.6876 67.7303 56.4705 65.4604C60.0279 63.3261 63.5854 61.1916 67.0018 61.1916C70.4182 61.1916 73.9758 63.3261 77.5331 65.4604C81.3162 67.7303 85.0995 70.0002 89.0233 70.0002Z" fill="#F5F5DC"/>
<path d="M89.0233 60.091C89.5408 60.091 89.9605 59.6714 89.9605 59.1539C89.9605 58.6364 89.5408 58.2168 89.0233 58.2168C85.6069 58.2168 82.0495 56.0823 78.4921 53.9479C74.709 51.6782 70.9258 49.4082 67.0018 49.4082C63.0778 49.4082 59.2946 51.6782 55.5115 53.9479C51.9542 56.0823 48.3967 58.2168 44.9803 58.2168C41.5639 58.2168 38.0064 56.0823 34.449 53.9479C30.6659 51.6782 26.8827 49.4082 22.9587 49.4082C19.0348 49.4082 15.2515 51.6781 11.4684 53.9479C7.91109 56.0822 4.35351 58.2168 0.937109 58.2168C0.419612 58.2168 0 58.6364 0 59.1539C0 59.6714 0.419614 60.091 0.937109 60.091C4.86112 60.091 8.64436 57.821 12.4275 55.5513C15.9848 53.4169 19.5423 51.2824 22.9587 51.2824C26.3751 51.2824 29.9327 53.4169 33.49 55.5513C37.2731 57.8211 41.0564 60.091 44.9803 60.091C48.9043 60.091 52.6876 57.8211 56.4705 55.5513C60.0279 53.417 63.5854 51.2824 67.0018 51.2824C70.4182 51.2824 73.9758 53.4169 77.5331 55.5513C81.3162 57.8211 85.0995 60.091 89.0233 60.091Z" fill="#F5F5DC"/>
<path d="M89.0233 50.1818C89.5408 50.1818 89.9605 49.7622 89.9605 49.2447C89.9605 48.7272 89.5408 48.3076 89.0233 48.3076C85.6069 48.3076 82.0495 46.1732 78.4921 44.0388C74.709 41.769 70.9258 39.499 67.0018 39.499C63.0778 39.499 59.2946 41.769 55.5115 44.0388C51.9542 46.1731 48.3967 48.3076 44.9803 48.3076C41.5639 48.3076 38.0064 46.1732 34.449 44.0388C30.6659 41.769 26.8827 39.499 22.9587 39.499C19.0348 39.499 15.2515 41.7689 11.4684 44.0388C7.91109 46.1731 4.35351 48.3076 0.937109 48.3076C0.419612 48.3076 0 48.7272 0 49.2447C0 49.7622 0.419614 50.1818 0.937109 50.1818C4.86112 50.1818 8.64436 47.9119 12.4275 45.6421C15.9848 43.5077 19.5423 41.3732 22.9587 41.3732C26.3751 41.3732 29.9327 43.5078 33.49 45.6421C37.2731 47.9119 41.0564 50.1818 44.9803 50.1818C48.9043 50.1818 52.6876 47.9119 56.4705 45.6421C60.0279 43.5078 63.5854 41.3732 67.0018 41.3732C70.4182 41.3732 73.9758 43.5078 77.5331 45.6421C81.3162 47.9119 85.0995 50.1818 89.0233 50.1818Z" fill="#F5F5DC"/>
<path d="M65.0804 6.19409C67.6195 6.19409 69.9184 7.22341 71.5824 8.88733C73.2463 10.5513 74.2756 12.8502 74.2756 15.3893C74.2756 17.9283 73.2464 20.2272 71.5824 21.8911C69.9184 23.5551 67.6195 24.5844 65.0804 24.5844C62.5414 24.5844 60.2425 23.5551 58.5785 21.8912C56.9146 20.2272 55.8853 17.9283 55.8853 15.3893C55.8853 12.8502 56.9146 10.5513 58.5785 8.88733C60.2425 7.2234 62.5414 6.19409 65.0804 6.19409ZM70.2573 10.2125C68.9325 8.88776 67.1021 8.06832 65.0804 8.06832C63.0587 8.06832 61.2284 8.88777 59.9036 10.2125C58.5789 11.5372 57.7595 13.3676 57.7595 15.3893C57.7595 17.411 58.5789 19.2413 59.9036 20.5661C61.2284 21.8908 63.0587 22.7103 65.0804 22.7103C67.1021 22.7103 68.9325 21.8908 70.2573 20.566C71.582 19.2414 72.4014 17.411 72.4014 15.3893C72.4014 13.3676 71.582 11.5372 70.2573 10.2125Z" fill="#F5F5DC"/>
<path d="M66.0129 0.937109C66.0129 0.419612 65.5933 0 65.0758 0C64.5583 0 64.1387 0.419614 64.1387 0.937109V3.68977C64.1387 4.20727 64.5583 4.62688 65.0758 4.62688C65.5933 4.62688 66.0129 4.20727 66.0129 3.68977V0.937109Z" fill="#F5F5DC"/>
<path d="M66.0129 27.0865C66.0129 26.569 65.5933 26.1494 65.0758 26.1494C64.5583 26.1494 64.1387 26.569 64.1387 27.0865V29.8392C64.1387 30.3567 64.5583 30.7763 65.0758 30.7763C65.5933 30.7763 66.0129 30.3567 66.0129 29.8392V27.0865Z" fill="#F5F5DC"/>
<path d="M75.9639 5.8334C76.3298 5.46753 76.3298 4.87415 75.9639 4.50829C75.5981 4.14242 75.0047 4.14242 74.6388 4.50829L72.6924 6.45473C72.3265 6.8206 72.3265 7.41398 72.6924 7.77984C73.0582 8.14571 73.6516 8.14571 74.0175 7.77984L75.9639 5.8334Z" fill="#F5F5DC"/>
<path d="M57.4673 24.3219C57.8332 23.9561 57.8332 23.3627 57.4673 22.9968C57.1015 22.6309 56.5081 22.6309 56.1422 22.9968L54.1958 24.9432C53.8299 25.3091 53.8299 25.9024 54.1958 26.2683C54.5616 26.6342 55.155 26.6342 55.5209 26.2683L57.4673 24.3219Z" fill="#F5F5DC"/>
<path d="M79.5306 16.3261C80.0481 16.3261 80.4677 15.9065 80.4677 15.389C80.4677 14.8715 80.0481 14.4519 79.5306 14.4519H76.7779C76.2604 14.4519 75.8408 14.8715 75.8408 15.389C75.8408 15.9065 76.2604 16.3261 76.7779 16.3261H79.5306Z" fill="#F5F5DC"/>
<path d="M53.3812 16.3261C53.8987 16.3261 54.3183 15.9065 54.3183 15.389C54.3183 14.8715 53.8987 14.4519 53.3812 14.4519H50.6285C50.111 14.4519 49.6914 14.8715 49.6914 15.389C49.6914 15.9065 50.111 16.3261 50.6285 16.3261H53.3812Z" fill="#F5F5DC"/>
<path d="M74.6388 26.2683C75.0047 26.6342 75.5981 26.6342 75.9639 26.2683C76.3298 25.9024 76.3298 25.3091 75.9639 24.9432L74.0175 22.9968C73.6516 22.6309 73.0582 22.6309 72.6924 22.9968C72.3265 23.3627 72.3265 23.9561 72.6924 24.3219L74.6388 26.2683Z" fill="#F5F5DC"/>
<path d="M56.1422 7.77984C56.5081 8.14571 57.1015 8.14571 57.4673 7.77984C57.8332 7.41398 57.8332 6.8206 57.4673 6.45473L55.5209 4.50829C55.155 4.14242 54.5616 4.14242 54.1958 4.50829C53.8299 4.87415 53.8299 5.46753 54.1958 5.8334L56.1422 7.77984Z" fill="#F5F5DC"/>
</svg>
