<svg width="66" height="70" viewBox="0 0 66 70" fill="none" xmlns="http://www.w3.org/2000/svg">
<path d="M10.1985 45.4088H5.71487C8.73367 41.6329 11.3561 37.5566 13.5407 33.244C13.6213 33.0773 13.6582 32.8928 13.6479 32.7079C13.6377 32.523 13.5808 32.3438 13.4823 32.1869C13.3839 32.03 13.2473 31.9007 13.0853 31.8111C12.9232 31.7215 12.7411 31.6744 12.5559 31.6744H8.38192C13.1852 25.7702 16.8349 19.0151 19.1405 11.7615C19.9127 14.157 20.8266 16.5044 21.8776 18.7913C22.3633 18.002 22.8221 17.2184 23.2539 16.4404C21.9783 13.5321 20.9602 10.5176 20.211 7.43143C20.1594 7.18577 20.0248 6.96536 19.8299 6.80715C19.635 6.64894 19.3916 6.56256 19.1405 6.5625H19.14C18.889 6.56267 18.6456 6.64916 18.4508 6.80746C18.256 6.96576 18.1216 7.18625 18.07 7.43192C18.0414 7.56919 15.0905 21.2405 5.16641 32.0275C5.0225 32.1838 4.92725 32.3786 4.89229 32.5882C4.85733 32.7978 4.88416 33.013 4.96952 33.2076C5.05488 33.4022 5.19507 33.5677 5.37295 33.6839C5.55084 33.8 5.75871 33.8619 5.97119 33.8619H10.7505C8.44201 38.1122 5.69238 42.1076 2.54709 45.7821C2.40869 45.9402 2.31876 46.1349 2.28808 46.3428C2.25739 46.5506 2.28724 46.763 2.37405 46.9543C2.46087 47.1457 2.60097 47.308 2.77761 47.4219C2.95425 47.5357 3.15994 47.5963 3.37008 47.5963H8.22601C6.51806 50.3077 3.03124 55.7455 0.218335 59.5004C0.0966049 59.663 0.02252 59.8562 0.00437581 60.0584C-0.0137683 60.2607 0.0247444 60.464 0.115602 60.6456C0.20646 60.8272 0.346076 60.9799 0.518816 61.0867C0.691556 61.1934 0.890601 61.25 1.09366 61.25H9.48798C9.23763 60.5423 9.23792 59.77 9.4888 59.0625H3.24485C6.92904 53.8923 11.0838 47.1514 11.13 47.0756C11.232 46.9099 11.2879 46.72 11.2921 46.5254C11.2962 46.3309 11.2483 46.1387 11.1534 45.9689C11.0584 45.799 10.9199 45.6575 10.7521 45.5591C10.5842 45.4606 10.3931 45.4087 10.1985 45.4088Z" fill="#F5F5DC"/>
<path d="M65.4064 59.5004C62.5935 55.7455 59.1066 50.3077 57.3987 47.5963H62.2655C62.487 47.5963 62.7033 47.529 62.8857 47.4035C63.0681 47.2779 63.2081 47.0999 63.2872 46.893C63.3663 46.6861 63.3807 46.4601 63.3285 46.2449C63.2764 46.0296 63.1601 45.8353 62.9951 45.6876C59.8849 42.0383 57.1633 38.075 54.8742 33.8619H59.6535C59.6571 33.8617 59.6608 33.8617 59.6644 33.8619C59.8881 33.8619 60.1064 33.7934 60.2898 33.6655C60.4733 33.5377 60.6132 33.3566 60.6906 33.1468C60.768 32.937 60.7792 32.7085 60.7227 32.4921C60.6663 32.2757 60.5448 32.0818 60.3747 31.9366C50.5345 21.1823 47.5833 7.56815 47.5547 7.43143C47.503 7.18577 47.3684 6.96536 47.1735 6.80715C46.9786 6.64895 46.7352 6.56257 46.4842 6.5625H46.4836C46.2326 6.56267 45.9893 6.64916 45.7944 6.80746C45.5996 6.96576 45.4652 7.18625 45.4136 7.43192C44.6671 10.5164 43.6508 13.5292 42.3765 16.4356C42.8079 17.2121 43.2657 17.9954 43.7498 18.7855C44.7997 16.5004 45.7127 14.155 46.4842 11.7615C48.7898 19.0151 52.4395 25.7702 57.2428 31.6744H53.0688C52.8836 31.6744 52.7015 31.7215 52.5394 31.8111C52.3774 31.9007 52.2408 32.03 52.1424 32.1869C52.0439 32.3438 51.987 32.523 51.9767 32.7079C51.9665 32.8928 52.0034 33.0773 52.084 33.244C54.2686 37.5565 56.891 41.6329 59.9098 45.4088H55.4262C55.2316 45.4087 55.0405 45.4606 54.8726 45.5591C54.7048 45.6575 54.5663 45.799 54.4713 45.9689C54.3764 46.1387 54.3285 46.3309 54.3326 46.5254C54.3368 46.72 54.3927 46.9099 54.4947 47.0756C54.5409 47.1514 58.6957 53.8923 62.3798 59.0625H56.1359C56.3868 59.77 56.3871 60.5423 56.1367 61.25H64.531C64.7341 61.25 64.9331 61.1934 65.1059 61.0867C65.2786 60.9799 65.4182 60.8272 65.5091 60.6456C65.5999 60.464 65.6385 60.2607 65.6203 60.0584C65.6022 59.8562 65.5281 59.663 65.4064 59.5004Z" fill="#F5F5DC"/>
<path d="M44.8065 45.89H50.4945C50.4981 45.8894 50.5018 45.8894 50.5054 45.89C50.7267 45.89 50.9429 45.8228 51.1252 45.6974C51.3076 45.5719 51.4476 45.3941 51.5268 45.1874C51.606 44.9807 51.6205 44.7549 51.5686 44.5397C51.5167 44.3245 51.4007 44.1302 51.236 43.9823C47.688 39.805 44.5901 35.2653 41.9936 30.4386H47.578C47.5816 30.4384 47.5853 30.4384 47.5889 30.4386C47.8124 30.4387 48.0306 30.3702 48.214 30.2425C48.3974 30.1148 48.5373 29.9339 48.6148 29.7243C48.6923 29.5146 48.7037 29.2863 48.6475 29.07C48.5912 28.8536 48.4701 28.6597 48.3003 28.5144C37.2322 16.3844 33.9152 1.0238 33.8829 0.869969C33.8315 0.624079 33.697 0.403375 33.502 0.244947C33.3071 0.0865197 33.0636 2.52882e-05 32.8124 0L32.8118 0C32.5606 0.000208948 32.3171 0.0868444 32.1222 0.245359C31.9273 0.403874 31.7929 0.624614 31.7416 0.870516C31.7095 1.02484 28.3928 16.4431 17.2406 28.6057C17.0971 28.7622 17.0023 28.957 16.9676 29.1665C16.933 29.3759 16.9601 29.5909 17.0455 29.7852C17.131 29.9796 17.2712 30.1448 17.449 30.2608C17.6267 30.3769 17.8344 30.4386 18.0467 30.4386H23.6316C21.0163 35.3032 17.8901 39.8753 14.3059 44.0774C14.1679 44.2356 14.0783 44.4302 14.0479 44.638C14.0175 44.8458 14.0476 45.0579 14.1345 45.2491C14.2214 45.4402 14.3615 45.6023 14.5381 45.716C14.7147 45.8296 14.9203 45.89 15.1302 45.89H20.8182C18.9554 48.862 14.9334 55.1719 11.7016 59.502C11.5802 59.6646 11.5065 59.8578 11.4886 60.0599C11.4708 60.262 11.5094 60.4651 11.6004 60.6465C11.6913 60.8278 11.8309 60.9803 12.0036 61.0869C12.1762 61.1935 12.3751 61.25 12.578 61.25H27.617V68.9062C27.6171 69.1963 27.7323 69.4745 27.9374 69.6796C28.1425 69.8848 28.4207 70 28.7108 70H36.9139C37.204 70 37.4822 69.8848 37.6873 69.6796C37.8924 69.4745 38.0077 69.1963 38.0077 68.9062V61.25H53.0467C53.2496 61.25 53.4485 61.1935 53.6212 61.0869C53.7938 60.9803 53.9334 60.8278 54.0243 60.6465C54.1153 60.4651 54.1539 60.262 54.1361 60.0599C54.1182 59.8578 54.0445 59.6646 53.9231 59.502C50.692 55.173 46.6696 48.8625 44.8065 45.89ZM35.8202 67.8125H29.8045V61.25H35.8202V67.8125ZM14.7281 59.0625C18.8935 53.2231 23.6661 45.4542 23.719 45.3682C23.8206 45.2024 23.8762 45.0125 23.88 44.8181C23.8839 44.6237 23.8358 44.4318 23.7408 44.2621C23.6458 44.0924 23.5073 43.9511 23.3396 43.8528C23.1719 43.7544 22.9809 43.7025 22.7865 43.7025H17.4769C20.9319 39.399 23.9276 34.7461 26.4149 29.8196C26.4953 29.6529 26.532 29.4685 26.5217 29.2837C26.5113 29.0989 26.4542 28.9197 26.3558 28.763C26.2573 28.6063 26.1207 28.4771 25.9587 28.3876C25.7967 28.298 25.6146 28.2511 25.4295 28.2511H20.4607C27.5626 19.7895 31.2022 10.4339 32.8124 5.27116C34.4225 10.4339 38.0621 19.7895 45.164 28.2511H40.1952C40.0101 28.2511 39.828 28.298 39.666 28.3876C39.504 28.4771 39.3674 28.6063 39.2689 28.763C39.1705 28.9197 39.1134 29.0989 39.103 29.2837C39.0927 29.4685 39.1294 29.6529 39.2098 29.8196C41.6971 34.7461 44.6928 39.399 48.1478 43.7025H42.8382C42.6438 43.7025 42.4528 43.7544 42.2851 43.8528C42.1174 43.9511 41.9789 44.0924 41.8839 44.2621C41.7889 44.4318 41.7408 44.6237 41.7447 44.8181C41.7485 45.0125 41.8041 45.2024 41.9057 45.3682C41.9586 45.4542 46.7312 53.2231 50.8966 59.0625H14.7281Z" fill="#F5F5DC"/>
<path d="M29.7509 21.3506C29.6102 21.3214 29.4652 21.3203 29.324 21.3474C29.1829 21.3744 29.0485 21.429 28.9286 21.5081C28.8086 21.5872 28.7055 21.6892 28.625 21.8083C28.5446 21.9273 28.4884 22.0611 28.4598 22.2019C28.2284 23.0923 27.8633 23.9424 27.3767 24.7232C27.2262 24.971 27.1802 25.2684 27.2489 25.5501C27.3175 25.8317 27.4952 26.0746 27.7428 26.2254C27.9905 26.3761 28.2879 26.4224 28.5696 26.354C28.8513 26.2857 29.0944 26.1082 29.2454 25.8607C29.8648 24.8662 30.3228 23.7798 30.6025 22.6419C30.6314 22.5012 30.6323 22.3562 30.6052 22.2151C30.578 22.0741 30.5234 21.9397 30.4443 21.8198C30.3652 21.6999 30.2633 21.5967 30.1443 21.5162C30.0253 21.4357 29.8917 21.3794 29.7509 21.3506Z" fill="#F5F5DC"/>
<path d="M26.3077 36.175C26.0242 36.1168 25.7292 36.173 25.4869 36.3312C25.2445 36.4894 25.0745 36.7369 25.0137 37.0199C24.7822 37.9115 24.4169 38.7629 23.9301 39.5449C23.8552 39.6676 23.8053 39.8038 23.7831 39.9459C23.7609 40.0879 23.767 40.2329 23.8009 40.3725C23.8348 40.5122 23.8959 40.6439 23.9807 40.7599C24.0655 40.876 24.1723 40.9742 24.2951 41.0489C24.4179 41.1236 24.5542 41.1735 24.6962 41.1955C24.8382 41.2175 24.9832 41.2113 25.1229 41.1773C25.2625 41.1433 25.3941 41.0821 25.5101 40.9971C25.626 40.9122 25.7241 40.8053 25.7988 40.6824C26.418 39.6878 26.8759 38.6015 27.1555 37.4637C27.2136 37.1804 27.157 36.8857 26.998 36.6441C26.8391 36.4025 26.5909 36.2338 26.3077 36.175Z" fill="#F5F5DC"/>
<path d="M22.2247 52.3894C21.9412 52.3312 21.6462 52.3872 21.4038 52.5453C21.1614 52.7034 20.9912 52.9508 20.9304 53.2338C20.6988 54.1257 20.3333 54.9774 19.8465 55.7598C19.7715 55.8825 19.7215 56.0188 19.6992 56.1609C19.677 56.303 19.6829 56.4481 19.7168 56.5878C19.7507 56.7276 19.8118 56.8593 19.8967 56.9754C19.9816 57.0915 20.0885 57.1897 20.2114 57.2645C20.3342 57.3392 20.4706 57.389 20.6128 57.4109C20.7549 57.4328 20.8999 57.4265 21.0396 57.3923C21.1793 57.3582 21.3109 57.2967 21.4268 57.2116C21.5427 57.1265 21.6407 57.0194 21.7152 56.8964C22.3341 55.9017 22.7921 54.8156 23.0722 53.6781C23.1303 53.3949 23.0737 53.1002 22.9148 52.8586C22.7559 52.617 22.5077 52.4483 22.2247 52.3894Z" fill="#F5F5DC"/>
<path d="M36.0708 22.1984C36.0111 21.9152 35.8417 21.6672 35.5995 21.5087C35.3574 21.3502 35.0623 21.2941 34.7789 21.3528C34.4955 21.4114 34.2469 21.58 34.0875 21.8216C33.9281 22.0632 33.871 22.358 33.9287 22.6417C34.2083 23.7795 34.6663 24.8659 35.2857 25.8605C35.4387 26.1059 35.6817 26.2816 35.9627 26.3498C36.2437 26.4181 36.5403 26.3736 36.7888 26.2258C37.0366 26.0749 37.2143 25.8319 37.2828 25.55C37.3514 25.2682 37.3052 24.9707 37.1544 24.7229C36.6678 23.941 36.3024 23.0898 36.0708 22.1984Z" fill="#F5F5DC"/>
<path d="M39.5175 37.0203C39.4583 36.7367 39.289 36.4881 39.0467 36.3291C38.8044 36.1702 38.5089 36.1139 38.2251 36.1726C37.9414 36.2313 37.6925 36.4003 37.5332 36.6423C37.3738 36.8844 37.3171 37.1798 37.3754 37.4636C37.655 38.6014 38.1129 39.6878 38.7322 40.6824C38.8859 40.9268 39.1288 41.1018 39.4094 41.1701C39.69 41.2384 39.9861 41.1947 40.235 41.0482C40.4828 40.8974 40.6606 40.6542 40.7292 40.3723C40.7978 40.0904 40.7517 39.7927 40.6008 39.5448C40.1144 38.7628 39.7491 37.9117 39.5175 37.0203Z" fill="#F5F5DC"/>
<path d="M41.4584 53.6783C41.7385 54.8158 42.1965 55.9019 42.8155 56.8965C42.9688 57.1415 43.2117 57.3168 43.4924 57.3853C43.7731 57.4537 44.0695 57.4098 44.3183 57.2629C44.5661 57.1121 44.7438 56.869 44.8124 56.5872C44.881 56.3054 44.8349 56.0078 44.6841 55.76C44.1977 54.9778 43.8324 54.1265 43.6005 53.235C43.5409 52.9518 43.3714 52.7038 43.1293 52.5453C42.8872 52.3868 42.5921 52.3308 42.3087 52.3894C42.0253 52.448 41.7766 52.6166 41.6173 52.8582C41.4579 53.0998 41.4008 53.3947 41.4584 53.6783Z" fill="#F5F5DC"/>
<path d="M32.8125 29.5312C32.5224 29.5313 32.2442 29.6465 32.0391 29.8516C31.834 30.0567 31.7188 30.3349 31.7188 30.625V33.0133C31.7188 33.3034 31.834 33.5816 32.0391 33.7867C32.2442 33.9918 32.5224 34.1071 32.8125 34.1071C33.1026 34.1071 33.3808 33.9918 33.5859 33.7867C33.791 33.5816 33.9062 33.3034 33.9062 33.0133V30.625C33.9062 30.3349 33.791 30.0567 33.5859 29.8516C33.3808 29.6465 33.1026 29.5313 32.8125 29.5312Z" fill="#F5F5DC"/>
<path d="M32.8125 38.1807C32.5224 38.1807 32.2442 38.2959 32.0391 38.501C31.834 38.7061 31.7188 38.9843 31.7188 39.2744V41.6627C31.7188 41.9528 31.834 42.231 32.0391 42.4361C32.2442 42.6412 32.5224 42.7565 32.8125 42.7565C33.1026 42.7565 33.3808 42.6412 33.5859 42.4361C33.791 42.231 33.9062 41.9528 33.9062 41.6627V39.2744C33.9062 38.9843 33.791 38.7061 33.5859 38.501C33.3808 38.2959 33.1026 38.1807 32.8125 38.1807Z" fill="#F5F5DC"/>
<path d="M32.8125 46.8303C32.5224 46.8303 32.2442 46.9456 32.0391 47.1507C31.834 47.3558 31.7188 47.634 31.7188 47.9241V50.3124C31.7188 50.6025 31.834 50.8807 32.0391 51.0858C32.2442 51.2909 32.5224 51.4061 32.8125 51.4061C33.1026 51.4061 33.3808 51.2909 33.5859 51.0858C33.791 50.8807 33.9062 50.6025 33.9062 50.3124V47.9241C33.9062 47.634 33.791 47.3558 33.5859 47.1507C33.3808 46.9456 33.1026 46.8303 32.8125 46.8303Z" fill="#F5F5DC"/>
</svg>
