<svg width="37" height="37" viewBox="0 0 37 37" fill="none" xmlns="http://www.w3.org/2000/svg">
<circle cx="18.5" cy="18.5" r="18.5" fill="#B98F4F"/>
<path d="M19.2192 12.3804V12.5281C19.174 12.6532 19.0793 12.7573 18.9545 12.8191C18.8298 12.8809 18.6846 12.8957 18.5486 12.8604C17.7821 12.6326 16.9631 12.6087 16.1829 12.7912C15.4027 12.9738 14.6921 13.3556 14.1303 13.8942C13.5549 14.4354 13.1508 15.1151 12.9628 15.858C12.7748 16.6009 12.8103 17.3781 13.0652 18.1033C13.1051 18.2259 13.0949 18.358 13.0366 18.474C12.9783 18.59 12.876 18.6816 12.7496 18.7309C12.6797 18.754 12.6056 18.7636 12.5317 18.7592C12.4578 18.7549 12.3855 18.7367 12.3193 18.7057C12.253 18.6747 12.1941 18.6315 12.1461 18.5788C12.098 18.526 12.0617 18.4648 12.0395 18.3987C11.7166 17.5077 11.6636 16.5504 11.8863 15.6329C12.1091 14.7155 12.5989 13.8736 13.3015 13.2008C14.0041 12.5279 14.8921 12.0502 15.8669 11.8207C16.8418 11.5912 17.8656 11.6188 18.8247 11.9005C18.9361 11.9315 19.0341 11.9945 19.105 12.0807C19.1758 12.1669 19.2158 12.2718 19.2192 12.3804Z" fill="white"/>
<path d="M19.3768 9.90889V10.0196C19.363 10.0835 19.3354 10.1441 19.2957 10.1976C19.256 10.2512 19.2051 10.2966 19.146 10.3311C19.087 10.3657 19.021 10.3886 18.9522 10.3985C18.8833 10.4084 18.8131 10.4051 18.7456 10.3888C17.6003 10.1944 16.4218 10.2606 15.3095 10.5818C14.1973 10.903 13.1839 11.4698 12.3549 12.2344C11.5718 13.0111 11.0041 13.9557 10.7015 14.9853C10.3989 16.0149 10.3706 17.0982 10.6191 18.1404C10.6366 18.2035 10.6401 18.2692 10.6295 18.3337C10.6189 18.3981 10.5944 18.4598 10.5575 18.5151C10.5206 18.5703 10.4721 18.618 10.4148 18.6551C10.3576 18.6922 10.2929 18.7181 10.2246 18.731C10.1572 18.7473 10.0869 18.7507 10.0181 18.7408C9.94924 18.7309 9.88328 18.7079 9.82422 18.6734C9.76515 18.6389 9.71423 18.5934 9.67455 18.5399C9.63487 18.4863 9.60727 18.4258 9.59342 18.3619C9.30791 17.1564 9.34199 15.9039 9.69268 14.7136C10.0434 13.5233 10.7 12.4313 11.6053 11.533C12.5565 10.6435 13.7268 9.98644 15.0132 9.61955C16.2996 9.25266 17.6626 9.18723 18.9823 9.42902C19.0937 9.46003 19.1917 9.52309 19.2625 9.60924C19.3334 9.69539 19.3734 9.80025 19.3768 9.90889Z" fill="white"/>
<path d="M28.1348 14.3384C28.1348 21.2411 20.9156 26.1136 15.9055 27.627C14.0908 28.2176 12.5129 28.1069 11.2505 27.2948C9.98812 26.4827 9.08078 24.4894 9.00188 23.5666C8.99313 23.4751 9.01501 23.3833 9.06449 23.3039C9.11396 23.2246 9.18859 23.1616 9.27803 23.1236L13.8936 20.7243C13.9941 20.6742 14.1087 20.6545 14.2217 20.6677C14.3347 20.6809 14.4405 20.7265 14.5248 20.7981L16.6156 22.7176C18.0486 22.2133 19.3554 21.4385 20.4548 20.4416C21.5542 19.4446 22.4227 18.2467 23.0064 16.9223L20.7578 14.929C20.6778 14.8445 20.6274 14.739 20.6133 14.6268C20.5992 14.5147 20.622 14.4012 20.6789 14.3015L23.4009 9.94583C23.4378 9.87803 23.4944 9.82131 23.5642 9.78215C23.6339 9.74299 23.714 9.72296 23.7953 9.72435C25.2155 9.5767 27.4641 10.315 27.8981 12.2713C28.0508 12.9512 28.13 13.6437 28.1348 14.3384ZM10.1065 23.825C10.2926 24.8887 10.9155 25.8424 11.8422 26.4827C12.8285 27.1102 14.0514 27.184 15.5899 26.7042C18.7458 25.7075 27.0696 21.4995 27.0696 14.4123C27.0803 13.7676 27.0142 13.1238 26.8724 12.4928C26.5962 11.2009 25.0972 10.721 24.1504 10.6841L21.7834 14.4492L23.9926 16.4055C24.0636 16.4721 24.1154 16.5544 24.143 16.6448C24.1706 16.7352 24.1732 16.8307 24.1504 16.9223C23.526 18.5166 22.529 19.9603 21.2323 21.1481C19.9356 22.3359 18.3718 23.2379 16.655 23.7881C16.5574 23.8132 16.4542 23.8128 16.3568 23.7867C16.2594 23.7607 16.1715 23.7101 16.1027 23.6404L14.0514 21.7948L10.1065 23.825Z" fill="white"/>
</svg>
